<svg xmlns="http://www.w3.org/2000/svg" width="14" height="14" viewBox="0 0 14 14" fill="none">
<path d="M6.6 0.7C6.9 0.5 7.1 0.5 7.4 0.7L12.6 4.8C12.8 4.9 12.8 5.1 12.8 5.3V11.7C12.8 12.1 12.6 12.6 12.3 12.9 12 13.2 11.5 13.4 11.1 13.4H2.9C2.5 13.4 2 13.2 1.7 12.9 1.4 12.6 1.2 12.1 1.2 11.7V5.3C1.2 5.1 1.2 4.9 1.4 4.8L6.6 0.7ZM2.3 5.5V11.7C2.3 11.8 2.4 12 2.5 12.1 2.6 12.2 2.8 12.3 2.9 12.3H11.1C11.2 12.3 11.4 12.2 11.5 12.1 11.6 12 11.7 11.8 11.7 11.7V5.5L7 1.9 2.3 5.5ZM4.7 7C4.7 6.7 4.9 6.4 5.3 6.4H8.8C9.1 6.4 9.3 6.7 9.3 7V12.8C9.3 13.2 9.1 13.4 8.8 13.4 8.4 13.4 8.2 13.2 8.2 12.8V7.6H5.8V12.8C5.8 13.2 5.6 13.4 5.3 13.4 4.9 13.4 4.7 13.2 4.7 12.8V7Z" fill="white"/></svg>
