<svg xmlns="http://www.w3.org/2000/svg" width="14" height="14" viewBox="0 0 14 14" fill="none"><path d="M7 1.2C5.8 1.2 4.6 1.7 3.7 2.5 2.8 3.4 2.3 4.6 2.3 5.8 2.3 7.6 3.5 9.4 4.8 10.8 5.4 11.4 6.1 12 6.5 12.3 6.7 12.5 6.9 12.6 7 12.7 7.1 12.6 7.3 12.5 7.5 12.3 7.9 12 8.6 11.4 9.2 10.8 10.5 9.4 11.7 7.6 11.7 5.8 11.7 4.6 11.2 3.4 10.3 2.5 9.4 1.7 8.2 1.2 7 1.2ZM7 13.4C6.7 13.9 6.7 13.9 6.7 13.9L6.7 13.9 6.7 13.9 6.7 13.9C6.6 13.9 6.6 13.9 6.6 13.9 6.6 13.8 6.5 13.8 6.4 13.7 6.3 13.6 6.1 13.5 5.8 13.3 5.3 12.9 4.6 12.3 4 11.6 2.6 10.1 1.2 8.1 1.2 5.8 1.2 4.3 1.8 2.8 2.9 1.7 4 0.6 5.5 0 7 0 8.5 0 10 0.6 11.1 1.7 12.2 2.8 12.8 4.3 12.8 5.8 12.8 8.1 11.4 10.1 10 11.6 9.4 12.3 8.7 12.9 8.2 13.3 7.9 13.5 7.7 13.6 7.6 13.7 7.5 13.8 7.4 13.8 7.4 13.9 7.4 13.9 7.4 13.9 7.3 13.9L7.3 13.9 7.3 13.9 7.3 13.9C7.3 13.9 7.3 13.9 7 13.4ZM7 13.4L7.3 13.9C7.1 14 6.9 14 6.7 13.9L7 13.4ZM7 4.7C6.4 4.7 5.8 5.2 5.8 5.8 5.8 6.5 6.4 7 7 7 7.6 7 8.2 6.5 8.2 5.8 8.2 5.2 7.6 4.7 7 4.7ZM4.7 5.8C4.7 4.5 5.7 3.5 7 3.5 8.3 3.5 9.3 4.5 9.3 5.8 9.3 7.1 8.3 8.2 7 8.2 5.7 8.2 4.7 7.1 4.7 5.8Z" fill="white"/></svg>
