<svg xmlns="http://www.w3.org/2000/svg" width="8" height="8" viewBox="0 0 8 8" fill="none"><path d="M4 0.3C4.1 0.3 4.2 0.4 4.3 0.5L5.3 2.4 7.4 2.8C7.5 2.8 7.6 2.9 7.7 3 7.7 3.1 7.7 3.2 7.6 3.3L6 4.8 6.4 7C6.4 7.1 6.4 7.2 6.3 7.3 6.2 7.4 6 7.4 5.9 7.3L4 6.3 2.1 7.3C2 7.4 1.8 7.4 1.7 7.3 1.6 7.2 1.6 7.1 1.6 7L2 4.8 0.4 3.3C0.3 3.2 0.3 3.1 0.3 3 0.4 2.9 0.5 2.8 0.6 2.8L2.7 2.4 3.7 0.5C3.8 0.4 3.9 0.3 4 0.3ZM4 1.4L3.3 2.9C3.2 3 3.1 3.1 3 3.1L1.4 3.3 2.6 4.5C2.6 4.6 2.7 4.7 2.7 4.8L2.4 6.4 3.8 5.6C3.9 5.6 4.1 5.6 4.2 5.6L5.6 6.4 5.3 4.8C5.3 4.7 5.4 4.6 5.4 4.5L6.6 3.3 5 3.1C4.9 3.1 4.8 3 4.7 2.9L4 1.4ZM2.3 5L1 3 3 2.7 4 1 5 2.7 7 3.3 5.7 4.7 6 7 4 6 2 7 2.3 5Z" fill="#F2994A"/></svg>