<svg xmlns="http://www.w3.org/2000/svg" width="14" height="14" viewBox="0 0 14 14" fill="none"><path d="M2.6 9C3.2 8.5 3.9 8.2 4.7 8.2H9.3C10.1 8.2 10.8 8.5 11.4 9 11.9 9.6 12.3 10.3 12.3 11.1V12.3C12.3 12.6 12 12.8 11.7 12.8 11.3 12.8 11.1 12.6 11.1 12.3V11.1C11.1 10.6 10.9 10.2 10.6 9.8 10.2 9.5 9.8 9.3 9.3 9.3H4.7C4.2 9.3 3.8 9.5 3.4 9.8 3.1 10.2 2.9 10.6 2.9 11.1V12.3C2.9 12.6 2.7 12.8 2.3 12.8 2 12.8 1.8 12.6 1.8 12.3V11.1C1.8 10.3 2.1 9.6 2.6 9ZM7 2.3C6 2.3 5.2 3.1 5.2 4.1 5.2 5 6 5.8 7 5.8 8 5.8 8.7 5 8.7 4.1 8.7 3.1 8 2.3 7 2.3ZM4.1 4.1C4.1 2.5 5.4 1.2 7 1.2 8.6 1.2 9.9 2.5 9.9 4.1 9.9 5.7 8.6 7 7 7 5.4 7 4.1 5.7 4.1 4.1Z" fill="white"/></svg>
